<mxfile host="app.diagrams.net" modified="2024-07-07T14:05:41.233Z" agent="Mozilla/5.0 (X11; Linux x86_64) AppleWebKit/537.36 (KHTML, like Gecko) Chrome/126.0.0.0 Safari/537.36" etag="krnbqhkD8XkIcYRTodTX" version="24.6.4" type="device">
  <diagram name="Page-1" id="e7e014a7-5840-1c2e-5031-d8a46d1fe8dd">
    <mxGraphModel dx="1434" dy="782" grid="1" gridSize="10" guides="1" tooltips="1" connect="1" arrows="1" fold="1" page="1" pageScale="1" pageWidth="1169" pageHeight="826" background="none" math="0" shadow="0">
      <root>
        <mxCell id="0" />
        <mxCell id="1" parent="0" />
        <mxCell id="2" value="User" style="swimlane;whiteSpace=wrap;fontSize=16;" parent="1" vertex="1">
          <mxGeometry x="164.5" y="128" width="280" height="652" as="geometry" />
        </mxCell>
        <mxCell id="5" value="" style="ellipse;shape=startState;fillColor=#000000;strokeColor=#ff0000;fontSize=16;" parent="2" vertex="1">
          <mxGeometry x="100" y="40" width="30" height="30" as="geometry" />
        </mxCell>
        <mxCell id="6" value="" style="edgeStyle=elbowEdgeStyle;elbow=horizontal;verticalAlign=bottom;endArrow=open;endSize=8;strokeColor=#FF0000;endFill=1;rounded=0;fontSize=16;" parent="2" source="5" target="7" edge="1">
          <mxGeometry x="100" y="40" as="geometry">
            <mxPoint x="115" y="110" as="targetPoint" />
          </mxGeometry>
        </mxCell>
        <mxCell id="7" value="Memilih algoritma" style="fontSize=16;" parent="2" vertex="1">
          <mxGeometry x="50" y="110" width="130" height="60" as="geometry" />
        </mxCell>
        <mxCell id="qdt8fQxZFipeebuiV41x-45" value="Memilih gambar" style="fontSize=16;verticalAlign=middle;whiteSpace=wrap;" vertex="1" parent="2">
          <mxGeometry x="42.75" y="205" width="144.5" height="80" as="geometry" />
        </mxCell>
        <mxCell id="qdt8fQxZFipeebuiV41x-52" style="edgeStyle=orthogonalEdgeStyle;rounded=0;orthogonalLoop=1;jettySize=auto;html=1;exitX=0.5;exitY=1;exitDx=0;exitDy=0;entryX=0.5;entryY=0;entryDx=0;entryDy=0;" edge="1" parent="2" source="qdt8fQxZFipeebuiV41x-49" target="qdt8fQxZFipeebuiV41x-51">
          <mxGeometry relative="1" as="geometry" />
        </mxCell>
        <mxCell id="qdt8fQxZFipeebuiV41x-49" value="Mengubah nilai citra gambar" style="fontSize=16;verticalAlign=middle;whiteSpace=wrap;" vertex="1" parent="2">
          <mxGeometry x="42.75" y="322" width="144.5" height="80" as="geometry" />
        </mxCell>
        <mxCell id="qdt8fQxZFipeebuiV41x-54" style="edgeStyle=orthogonalEdgeStyle;rounded=0;orthogonalLoop=1;jettySize=auto;html=1;exitX=0.5;exitY=1;exitDx=0;exitDy=0;entryX=0.5;entryY=0;entryDx=0;entryDy=0;" edge="1" parent="2" source="qdt8fQxZFipeebuiV41x-51" target="qdt8fQxZFipeebuiV41x-53">
          <mxGeometry relative="1" as="geometry" />
        </mxCell>
        <mxCell id="qdt8fQxZFipeebuiV41x-51" value="Mengubah parameter perhitungan" style="fontSize=16;verticalAlign=middle;whiteSpace=wrap;" vertex="1" parent="2">
          <mxGeometry x="42.75" y="432" width="144.5" height="80" as="geometry" />
        </mxCell>
        <mxCell id="qdt8fQxZFipeebuiV41x-53" value="Kontrol animasi play, repeat, stop." style="fontSize=16;verticalAlign=middle;whiteSpace=wrap;" vertex="1" parent="2">
          <mxGeometry x="42.75" y="552" width="144.5" height="80" as="geometry" />
        </mxCell>
        <mxCell id="3" value="Sistem" style="swimlane;whiteSpace=wrap;fontSize=16;" parent="1" vertex="1">
          <mxGeometry x="445" y="128" width="280" height="652" as="geometry" />
        </mxCell>
        <mxCell id="38" value="" style="ellipse;shape=endState;fillColor=#000000;strokeColor=#ff0000;fontSize=16;" parent="3" vertex="1">
          <mxGeometry x="102.25" y="592" width="30" height="30" as="geometry" />
        </mxCell>
        <mxCell id="qdt8fQxZFipeebuiV41x-41" value="Menampilkan judul, deskripsi, rumus, gambar." style="fontSize=16;verticalAlign=middle;whiteSpace=wrap;" vertex="1" parent="3">
          <mxGeometry x="68.25" y="62" width="144.5" height="80" as="geometry" />
        </mxCell>
        <mxCell id="qdt8fQxZFipeebuiV41x-47" value="Menampilkan tabel citra, tabel hasil, proses perhitungan." style="fontSize=16;verticalAlign=middle;whiteSpace=wrap;" vertex="1" parent="3">
          <mxGeometry x="75" y="285" width="144.5" height="80" as="geometry" />
        </mxCell>
        <mxCell id="qdt8fQxZFipeebuiV41x-57" style="edgeStyle=orthogonalEdgeStyle;rounded=0;orthogonalLoop=1;jettySize=auto;html=1;exitX=0.5;exitY=1;exitDx=0;exitDy=0;" edge="1" parent="3" source="qdt8fQxZFipeebuiV41x-55" target="38">
          <mxGeometry relative="1" as="geometry" />
        </mxCell>
        <mxCell id="qdt8fQxZFipeebuiV41x-55" value="Menampilkan proses perhitungan citra" style="fontSize=16;verticalAlign=middle;whiteSpace=wrap;" vertex="1" parent="3">
          <mxGeometry x="45" y="432" width="144.5" height="80" as="geometry" />
        </mxCell>
        <mxCell id="qdt8fQxZFipeebuiV41x-44" style="edgeStyle=orthogonalEdgeStyle;rounded=0;orthogonalLoop=1;jettySize=auto;html=1;exitX=1;exitY=0.5;exitDx=0;exitDy=0;entryX=0;entryY=0.5;entryDx=0;entryDy=0;" edge="1" parent="1" source="7" target="qdt8fQxZFipeebuiV41x-41">
          <mxGeometry relative="1" as="geometry" />
        </mxCell>
        <mxCell id="qdt8fQxZFipeebuiV41x-46" style="edgeStyle=orthogonalEdgeStyle;rounded=0;orthogonalLoop=1;jettySize=auto;html=1;exitX=0.5;exitY=1;exitDx=0;exitDy=0;entryX=1;entryY=0.5;entryDx=0;entryDy=0;" edge="1" parent="1" source="qdt8fQxZFipeebuiV41x-41" target="qdt8fQxZFipeebuiV41x-45">
          <mxGeometry relative="1" as="geometry" />
        </mxCell>
        <mxCell id="qdt8fQxZFipeebuiV41x-48" style="edgeStyle=orthogonalEdgeStyle;rounded=0;orthogonalLoop=1;jettySize=auto;html=1;exitX=0.5;exitY=1;exitDx=0;exitDy=0;entryX=0.5;entryY=0;entryDx=0;entryDy=0;" edge="1" parent="1" source="qdt8fQxZFipeebuiV41x-45" target="qdt8fQxZFipeebuiV41x-47">
          <mxGeometry relative="1" as="geometry" />
        </mxCell>
        <mxCell id="qdt8fQxZFipeebuiV41x-50" style="edgeStyle=orthogonalEdgeStyle;rounded=0;orthogonalLoop=1;jettySize=auto;html=1;exitX=0.5;exitY=1;exitDx=0;exitDy=0;entryX=1;entryY=0.5;entryDx=0;entryDy=0;" edge="1" parent="1" source="qdt8fQxZFipeebuiV41x-47" target="qdt8fQxZFipeebuiV41x-49">
          <mxGeometry relative="1" as="geometry" />
        </mxCell>
        <mxCell id="qdt8fQxZFipeebuiV41x-56" style="edgeStyle=orthogonalEdgeStyle;rounded=0;orthogonalLoop=1;jettySize=auto;html=1;exitX=1;exitY=0.5;exitDx=0;exitDy=0;entryX=0;entryY=0.5;entryDx=0;entryDy=0;" edge="1" parent="1" source="qdt8fQxZFipeebuiV41x-53" target="qdt8fQxZFipeebuiV41x-55">
          <mxGeometry relative="1" as="geometry" />
        </mxCell>
      </root>
    </mxGraphModel>
  </diagram>
</mxfile>
